
<svg width="409px" height="428px" viewBox="474 0 409 428" version="1.1" xmlns="http://www.w3.org/2000/svg" xmlns:xlink="http://www.w3.org/1999/xlink">
    <!-- Generator: Sketch 39 (31667) - http://www.bohemiancoding.com/sketch -->
    <desc>Created with Sketch.</desc>
    <defs>
        <linearGradient x1="90.46739%" y1="8.56200892%" x2="-1.02218798%" y2="88.4659898%" id="linearGradient-1">
            <stop stop-color="#98C0E2" offset="0%"></stop>
            <stop stop-color="#A8D4F5" offset="57%"></stop>
            <stop stop-color="#A4DCFC" offset="100%"></stop>
        </linearGradient>
        <linearGradient x1="304056%" y1="408439.661%" x2="287766%" y2="391137.441%" id="linearGradient-2">
            <stop stop-color="#98C0E2" offset="0%"></stop>
            <stop stop-color="#FDBBEC" offset="57%"></stop>
            <stop stop-color="#A4DCFC" offset="97.7539062%"></stop>
        </linearGradient>
        <linearGradient x1="394642%" y1="508069.154%" x2="378352%" y2="486017.656%" id="linearGradient-3">
            <stop stop-color="#98C0E2" offset="0%"></stop>
            <stop stop-color="#4DA7CD" offset="55.0083705%"></stop>
            <stop stop-color="#A4DCFC" offset="97.2337372%"></stop>
        </linearGradient>
        <linearGradient x1="103145%" y1="281055.542%" x2="86855%" y2="269503.51%" id="linearGradient-4">
            <stop stop-color="#98C0E2" offset="0%"></stop>
            <stop stop-color="#53A5E4" offset="57%"></stop>
            <stop stop-color="#A4DCFC" offset="100%"></stop>
        </linearGradient>
        <linearGradient x1="-173119%" y1="205255.579%" x2="-189410%" y2="195919.932%" id="linearGradient-5">
            <stop stop-color="#98C0E2" offset="0%"></stop>
            <stop stop-color="#5580C7" offset="57%"></stop>
            <stop stop-color="#A4DCFC" offset="100%"></stop>
        </linearGradient>
        <linearGradient x1="-420403%" y1="181509.259%" x2="-436693%" y2="170471.339%" id="linearGradient-6">
            <stop stop-color="#98C0E2" offset="0%"></stop>
            <stop stop-color="#3DA6E3" offset="57%"></stop>
            <stop stop-color="#A4DCFC" offset="100%"></stop>
        </linearGradient>
        <linearGradient x1="11.6784635%" y1="17.7601315%" x2="53.3654768%" y2="60.017827%" id="linearGradient-7">
            <stop stop-color="#79A7CB" offset="0%"></stop>
            <stop stop-color="#ABCFF1" offset="46.2595374%"></stop>
            <stop stop-color="#A4DCFC" offset="100%"></stop>
        </linearGradient>
    </defs>
    <g id="floral-faq-copy" stroke="none" stroke-width="1" fill="none" fill-rule="evenodd" transform="translate(475.000000, 0.000000)">
        <path d="M266.889267,48.4258056 C258.710003,55.0579635 251.341743,63.6908222 246.535066,73.7717021 C243.746006,75.308152 240.976727,76.8888163 238.227229,78.4584269 C228.969924,83.7530996 210.811366,92.8281022 189.250551,113.763614 C177.955849,126.806857 168.293043,137.274613 161.824798,161.504096 C156.553278,184.716649 161.597322,155.623583 161.824798,161.504096 C160.707196,167.406717 140.51124,251.557746 142.182698,257.305616 C142.795343,264.63589 144.841404,271.726242 148.176209,278.075324 C146.083119,282.690872 144.597429,287.62007 143.765143,292.710285 C141.104657,310.031271 142.845347,329.187153 152.379579,343.822115 L162.566569,356.920626 C170.276123,364.544495 179.606575,369.830764 189.665943,372.274072 C204.887087,377.336619 244.794376,334.857648 260.084752,323.715623 C278.698264,310.141807 309.249345,298.049172 329.74201,241.91901 C347.732434,192.675238 362.083233,198.577859 368.314111,170.645421 C370.895475,159.105466 373.575741,152.185915 377.04723,125.502533 C378.234064,116.372262 372.379017,84.6042265 366.593202,78.3589446 C361.98433,71.3067501 338.099299,52.305618 333.361854,49.3211469 C327.357878,43.8817242 320.207538,40.2513557 312.592261,38.776016 C304.925714,36.5144528 296.858163,36.5793195 289.221524,38.9639272 C281.154896,39.8320392 273.443583,43.0992195 266.889267,48.4258056 L266.889267,48.4258056 Z" id="Shape" fill="url(#linearGradient-1)"></path>
        <path d="M266.889267,98.3770076 C258.710003,105.009165 251.341743,113.642024 246.535066,123.722904 C243.746006,125.259354 240.976727,126.840018 238.227229,128.409629 C228.969924,133.704302 210.811366,142.779304 189.250551,163.714816 C177.955849,176.758059 168.293043,187.225815 161.824798,211.455298 C156.553278,234.667851 161.597322,205.574785 161.824798,211.455298 C160.707196,217.357919 140.51124,301.508948 142.182698,307.256818 C142.795343,314.587092 144.841404,321.677444 148.176209,328.026526 C146.083119,332.642074 144.597429,337.571272 143.765143,342.661487 C141.104657,359.982473 142.845347,379.138355 152.379579,393.773317 L162.566569,406.871828 C170.273982,414.503682 179.604616,419.797665 189.665943,422.247381 C204.887087,427.309928 244.794376,384.830957 260.084752,373.688932 C278.698264,360.115116 309.249345,348.022481 329.74201,291.892319 C347.732434,242.648547 362.083233,248.551168 368.314111,220.61873 C370.895475,209.078775 373.575741,202.159224 377.04723,175.475842 C378.234064,166.345572 372.379017,134.577536 366.593202,128.332254 C361.98433,121.280059 338.099299,102.278927 333.361854,99.2944561 C327.357878,93.8550334 320.207538,90.2246648 312.592261,88.7493252 C304.925714,86.4877619 296.858163,86.5526286 289.221524,88.9372363 C281.156811,89.7988236 273.44566,93.0583016 266.889267,98.3770076 L266.889267,98.3770076 Z" id="Shape" fill="url(#linearGradient-2)"></path>
        <path d="M282.229094,117.831337 C279.26201,119.003018 276.383937,120.20786 273.495975,121.412702 C263.754047,125.480426 244.814157,132.167852 221.196163,150.152053 C208.625614,161.647793 197.944109,170.800171 189.003294,194.023777 C187.282385,199.738486 158.511554,280.717133 159.569814,286.641861 C159.421672,294.000676 160.721551,301.306045 163.377572,308.041623 C160.807981,312.351326 158.80926,317.053506 157.443403,322.002315 C153.012557,338.85905 152.755409,358.114415 160.707196,373.887897 L169.469986,388.257572 C176.334959,396.840683 185.056226,403.310826 194.798999,407.048686 C209.397056,414.056666 253.428592,377.027118 269.777229,367.918955 C289.676477,356.865358 321.266038,348.785179 347.435725,295.716863 C370.410851,249.137008 384.029769,256.852419 393.1585,229.914804 C396.916807,218.794886 400.299284,212.22905 406.510381,186.197831 C408.636792,177.288632 406.104879,145.001077 401.011384,138.015204 C397.164064,130.421383 375.405443,108.446834 371.004268,104.854415 C365.618487,98.6629484 358.904114,94.115567 351.500631,91.6453674 C344.119527,88.4097455 336.09981,87.4329337 328.268358,88.8156467 C320.15833,88.6185355 312.149354,90.8553331 305.075646,95.2930542 C296.253515,100.819852 288.054471,108.43578 282.229094,117.831337 Z" id="Shape" fill="url(#linearGradient-3)"></path>
        <path d="M242.381147,122.031704 C239.987699,124.242423 237.614031,126.453142 235.270034,128.741237 C227.357808,136.290843 211.533357,149.820445 194.917683,175.741128 C186.619736,191.348807 179.380049,204.027282 178.104203,229.273696 C178.232776,235.308959 175.977792,322.400245 178.786632,327.562274 C180.898736,334.526825 184.352543,340.888552 188.904391,346.198638 C187.819087,351.228462 187.389371,356.407088 187.628545,361.57419 C188.617573,379.105194 194.274814,397.310467 206.568435,409.104655 L219.188435,419.218695 C228.265504,424.64839 238.437138,427.384788 248.730708,427.166231 C264.55516,428.172109 294.631508,376.54076 307.211947,361.739994 C322.522104,343.733686 349.740161,324.080392 358.097449,264.20306 C365.426149,211.654263 380.607732,213.688125 380.924221,184.893506 C381.052795,172.999837 382.229738,165.57182 380.093437,138.711581 C379.361556,129.526042 367.107497,100.156637 360.184299,95.5362333 C354.25013,89.8657384 327.071634,77.5409784 321.849565,75.8608318 C314.885332,72.1200202 307.180118,70.4342482 299.467856,70.9640886 C291.525451,70.7320752 283.671897,72.8767903 276.720207,77.1762098 C269.054598,80.0961633 262.228109,85.256241 256.949533,92.120672 C250.362605,100.709316 244.972401,110.978107 242.381147,122.031704 Z" id="Shape" fill="url(#linearGradient-4)"></path>
        <path d="M123.450503,77.3199065 C121.877948,80.3264847 120.344954,83.3441165 118.821851,86.3396411 C113.688794,96.4536818 102.997399,115.211635 95.2829792,145.929579 C92.2664431,163.770084 89.3488098,178.44926 95.8566156,202.656636 C97.834672,208.271863 122.352682,290.974871 126.575832,294.7552 C130.695328,300.491972 135.891302,305.148245 141.796977,308.395338 C142.31808,313.536069 143.500631,318.565769 145.308027,323.328747 C151.608137,339.422783 162.487447,354.367246 177.64925,360.734117 L192.603357,365.420842 C202.795383,367.05373 213.191817,365.736903 222.798388,361.596298 C238.009642,356.478483 250.491179,296.479562 257.730865,277.754769 C266.632119,254.973307 286.165427,226.101313 275.691618,166.655072 C266.503546,114.471044 281.38842,110.580178 272.872887,83.3993845 C269.351947,72.1689306 268.184893,64.7409139 257.958342,40.2903587 C254.457182,31.9338399 233.954627,9.01973463 226.032511,7.32853439 C218.723592,4.26668819 189.438466,3.07289979 183.988921,3.49293645 C176.299782,2.64088567 168.543493,4.00320278 161.458858,7.45012395 C153.93653,10.2822026 147.227296,15.3078385 142.024453,22.0077103 C135.699904,27.686206 130.853504,35.1562396 127.990143,43.6395984 C124.429641,54.2289437 122.510926,65.9347023 123.450503,77.3199065 Z" id="Shape" fill="url(#linearGradient-5)"></path>
        <path d="M94.1357065,105.009165 C93.5719604,108.43578 93.0576657,111.851342 92.543371,115.255849 C90.8224619,126.718429 86.5102988,148.416638 88.6564901,180.239942 C91.2774149,198.157822 93.0279948,213.069123 106.557901,233.297205 C110.128293,237.829179 158.491773,306.162512 163.605049,308.096891 C169.232477,311.921123 175.542797,314.317254 182.089987,315.115925 C184.166147,319.750014 186.831148,324.024109 190.002212,327.805454 C200.881523,340.528143 215.637824,350.399005 231.838106,350.597969 L247.257056,349.293645 C257.331919,346.932229 266.696416,341.722081 274.455332,334.161271 C287.184126,323.538765 280.498295,262.401324 281.625787,242.029546 C282.990646,217.236329 292.505098,182.627519 264.505708,130.764045 C239.928357,85.2784959 252.726382,75.938207 236.377746,53.6541567 C229.642464,44.446511 226.269877,37.9138355 209.17947,18.868489 C203.373874,12.3579207 177.095394,-1.33748516 169.123826,0.110535964 C161.320394,0.0331607891 133.410017,10.0587727 128.435205,12.5789927 C120.946658,14.7143659 114.072139,18.9573928 108.466725,24.9037526 C102.255577,30.4238023 97.4755491,37.6969124 94.6203303,45.9719073 C90.4296698,53.729023 88.1756254,62.599553 88.092744,71.6604652 C88.023512,82.9682943 89.774092,94.7072136 94.1357065,105.009165 Z" id="Shape" fill="url(#linearGradient-6)"></path>
        <path d="M18.4453764,208.87981 C18.9695614,212.306425 19.5234172,215.721987 20.0871632,219.115441 C21.9762072,230.544859 24.5773514,252.596784 36.3270067,281.667742 C44.2392325,297.496492 50.4800006,310.849237 69.4001105,324.710447 C74.1375557,327.606489 140.50135,373.346271 145.901444,373.19152 C152.361119,374.636837 159.026036,374.478351 165.424861,372.727269 C168.779444,376.291663 172.576927,379.296074 176.699783,381.647521 C190.783545,389.45136 207.705818,393.087994 222.986304,387.063784 L237.129407,379.912107 C245.874294,373.842081 253.079856,365.366541 258.057244,355.295748 C266.760693,340.450768 241.77784,285.547555 236.605222,265.971636 C230.305112,242.151135 228.692996,205.972715 186.471382,167.959397 C149.412494,134.588589 158.580786,120.915291 136.426553,106.214007 C127.278042,100.145583 122.105425,95.2820006 100.22812,83.9299571 C92.7411767,80.0501448 63.8615525,77.2204242 56.8196715,81.6197555 C49.4514112,84.5157978 26.3081508,104.65545 22.391599,108.866871 C16.010456,113.739383 10.8520207,120.356973 7.40782141,128.089075 C3.27131955,135.650538 1.01457248,144.308404 0.870344838,153.169685 C-0.711054239,162.061337 -0.130448287,171.264236 2.55169282,179.819906 C5.91438879,190.486626 11.1760189,200.821739 18.4453764,208.87981 Z" id="Shape" fill="url(#linearGradient-7)"></path>
    </g>
</svg>
