
<svg width="470px" height="470px" viewBox="275 153 470 470" version="1.1" xmlns="http://www.w3.org/2000/svg" xmlns:xlink="http://www.w3.org/1999/xlink">
    <!-- Generator: Sketch 40.3 (33839) - http://www.bohemiancoding.com/sketch -->
    <desc>Created with Sketch.</desc>
    <defs>
        <linearGradient x1="74.9611647%" y1="90.5446345%" x2="115.459465%" y2="102.926777%" id="linearGradient-1">
            <stop stop-color="#EFC09D" offset="0%"></stop>
            <stop stop-color="#94DCFF" offset="100%"></stop>
        </linearGradient>
        <linearGradient x1="68.007481%" y1="73.1873512%" x2="113.279321%" y2="77.0100865%" id="linearGradient-2">
            <stop stop-color="#EFC09D" offset="0%"></stop>
            <stop stop-color="#94DCFF" offset="100%"></stop>
        </linearGradient>
        <linearGradient x1="59.0109301%" y1="97.7563779%" x2="126.991693%" y2="0%" id="linearGradient-3">
            <stop stop-color="#EFC09D" offset="0%"></stop>
            <stop stop-color="#94DCFF" offset="100%"></stop>
        </linearGradient>
        <linearGradient x1="71.6157488%" y1="93.5202017%" x2="111.012671%" y2="-3.29525534%" id="linearGradient-4">
            <stop stop-color="#EFC09D" offset="0%"></stop>
            <stop stop-color="#B3D3DF" offset="66.4788874%"></stop>
            <stop stop-color="#94DCFF" offset="100%"></stop>
        </linearGradient>
        <linearGradient x1="59.4786209%" y1="87.145739%" x2="96.0631906%" y2="-4.2902684%" id="linearGradient-5">
            <stop stop-color="#EFC09D" offset="0%"></stop>
            <stop stop-color="#94DCFF" offset="100%"></stop>
        </linearGradient>
        <linearGradient x1="39.5272625%" y1="64.847741%" x2="66.2871449%" y2="-15.0808737%" id="linearGradient-6">
            <stop stop-color="#F0C09D" offset="0%"></stop>
            <stop stop-color="#94DCFF" offset="100%"></stop>
        </linearGradient>
    </defs>
    <g id="floral-home" stroke="none" stroke-width="1" fill="none" fill-rule="evenodd" transform="translate(275.000000, 154.000000)">
        <g id="Asset-3">
            <g id="Layer_2">
                <g id="draft1">
                    <path d="M396.19,304.7 C389.667682,294.451326 381.645112,285.238854 372.39,277.37 C363.39,260.06 350.28,244.21 332.95,236.31 C328.835724,234.435263 324.829473,232.331982 320.95,230.01 C319.78,228.88 318.65,227.71 317.52,226.54 C316.266667,224.54 315.066667,222.48 313.92,220.36 C313.2,218.01 312.57,215.64 311.97,213.26 L311.97,209.11 C312.61,206.67 313.29,204.25 314.08,201.83 C318.490347,188.130598 319.146465,173.499169 315.98,159.46 C315.395359,146.241499 311.492054,133.382947 304.63,122.07 C304.675723,113.293325 303.373895,104.561638 300.77,96.18 C292.45,70.47 276.52,45.67 251.94,32.68 C226.19,19.08 198.74,15 170.07,22 C159.42,24.57 148.53,29.87 138.74,34.59 C136.135767,35.8572997 133.637709,37.3320568 131.27,39 C113.79,51.15 103.35,61.3 90.86,77.47 C74.71,98.38 65.52,118.38 55.35,143 C50.6563312,154.216087 47.11155,165.87902 44.77,177.81 C40.77,198.44 37.64,219.95 37.82,241.07 C38,262.19 41.06,283.65 45.38,304.26 C49.7,324.87 58.38,343.91 66.81,363.05 C75.24,382.19 87.81,398.49 101.07,414.69 C110.07,425.62 121.95,434.06 133.33,442.13 C135.344937,443.63721 137.452406,445.016583 139.64,446.26 C150.070875,451.97323 161.06213,456.5976 172.44,460.06 C197.44,467.25 223.59,466.2 249.25,465.67 L304.44,464.53 C330.83,463.98 361.27,453.35 379.57,433.41 L396.18,411.91 C403.821793,400.099277 408.174763,386.463884 408.79,372.41 C411.31706,363.176903 411.320513,353.434886 408.8,344.2 C408.184763,330.146116 403.831793,316.510723 396.19,304.7 Z" id="Shape" fill="url(#linearGradient-1)"></path>
                    <path d="M403.09,204.11 C392.126882,198.872875 380.440186,195.309899 368.42,193.54 C351.58,183.65 332.09,177.13 313.22,179.62 C308.742121,180.204347 304.235105,180.5382 299.72,180.62 C298.13,180.28 296.55,179.89 294.97,179.49 C292.83,178.43 290.72,177.32 288.64,176.16 C286.79,174.55 284.99,172.88 283.23,171.16 C282.476667,170 281.74,168.83 281.02,167.65 C280.27,165.25 279.56,162.82 278.96,160.36 C275.441228,146.404784 268.244645,133.648459 258.12,123.42 C250.618688,112.521205 240.494199,103.686351 228.68,97.73 C224.0657,90.2624052 218.332242,83.5475139 211.68,77.82 C191,60.43 164.35,47.82 136.62,49.82 C107.57,52 82.16,63.11 61.52,84.18 C53.86,92 47.43,102.27 41.62,111.46 C40.0803714,113.928051 38.7426854,116.516474 37.62,119.2 C29.24,138.77 25.76,152.9 23.73,173.2 C21.11,199.47 23.91,221.3 28.35,247.59 C30.31487,259.59024 33.491105,271.360402 37.83,282.72 C45.41,302.31 54.11,322.24 65.46,340.05 C76.81,357.86 90.77,374.44 105.36,389.63 C119.95,404.82 137.36,416.37 154.69,428.13 C172.02,439.89 191.26,447.07 211.11,453.77 C224.5,458.29 239.11,459.13 253.01,459.95 C255.517518,460.160894 258.035793,460.214332 260.55,460.11 C272.423876,459.42709 284.195917,457.523726 295.68,454.43 C320.68,447.26 342.31,432.54 363.79,418.49 L410,388.31 C432.09,373.87 452.27,348.71 457.22,322.11 L459.91,295.11 C460.131214,281.044277 456.596366,267.17414 449.67,254.93 C446.929151,245.734054 441.765467,237.444527 434.72,230.93 C426.750229,219.335457 415.831444,210.077101 403.09,204.11 Z" id="Shape" fill="url(#linearGradient-2)"></path>
                    <path d="M355.68,115.14 C343.60846,116.509034 331.810545,119.680988 320.68,124.55 C301.16,125.09 281.18,129.89 266.49,142 C263.004977,144.867533 259.362648,147.538352 255.58,150 C254.05,150.55 252.51,151.06 250.96,151.56 C248.586667,151.793333 246.206667,151.97 243.82,152.09 C241.39,151.7 238.98,151.24 236.58,150.73 C235.326667,150.15 234.08,149.55 232.84,148.93 C230.93,147.29 229.05,145.61 227.23,143.84 C216.853237,133.881352 203.997368,126.885383 190,123.58 C177.863487,118.31089 164.595718,116.182132 151.42,117.39 C143.539691,113.497789 135.107891,110.840085 126.42,109.51 C99.67,105.72 70.42,109.16 47.94,125.56 C24.41,142.75 8.76,165.65 2.42,194.46 C0.06,205.15 0.05,217.26 0,228.14 C0.00973452436,231.044931 0.253860073,233.94434 0.73,236.81 C3.99,257.81 8.53,271.68 17.59,290 C29.29,313.66 43.24,330.7 60.93,350.64 C68.9536275,359.775868 77.8825932,368.074948 87.58,375.41 C104.39,388 122.33,400.29 141.39,409.41 C160.45,418.53 181.08,425.16 201.5,430.31 C221.92,435.46 242.83,436.02 263.73,436.82 C284.63,437.62 304.78,433.5 325.16,428.66 C338.91,425.4 351.72,418.38 363.97,411.66 C366.208573,410.510069 368.372821,409.220872 370.45,407.8 C380.156894,400.929492 389.130846,393.078121 397.23,384.37 C414.67,365 425.19,341.1 436,317.81 L459.17,267.7 C470.25,243.7 474.03,211.7 464.17,186.53 L452.17,162.17 C444.897601,150.12058 434.541272,140.230285 422.17,133.52 C414.940534,127.177229 406.134969,122.900536 396.68,121.14 C383.789563,115.531344 369.637034,113.460242 355.68,115.14 Z" id="Shape" fill="url(#linearGradient-3)"></path>
                    <path d="M268.24,64.86 C258.729854,72.4191551 250.407276,81.3619662 243.55,91.39 C227.28,102.19 212.88,116.85 206.84,134.9 C205.408786,139.18313 203.739521,143.383001 201.84,147.48 C200.84,148.76 199.84,150.01 198.75,151.25 C196.863333,152.71 194.94,154.12 192.98,155.48 C190.72,156.48 188.43,157.32 186.12,158.16 C184.746667,158.333333 183.373333,158.483333 182,158.61 C179.51,158.23 177,157.8 174.54,157.27 C160.456656,154.317208 145.8392,155.194325 132.21,159.81 C119.124236,161.77409 106.743657,167.001445 96.21,175.01 C87.4784934,175.880789 78.9323447,178.086464 70.87,181.55 C46.17,192.55 23.17,210.95 12.87,236.75 C2.03,263.75 0.87,291.51 10.78,319.29 C14.45,329.61 20.86,339.88 26.58,349.14 C28.1249884,351.61006 29.8673423,353.951034 31.79,356.14 C45.7,372.25 56.88,381.57 74.27,392.31 C96.73,406.18 117.58,413.23 143.16,420.77 C154.806938,424.264719 166.778127,426.569835 178.89,427.65 C199.82,429.42 221.55,430.34 242.53,427.95 C263.51,425.56 284.53,420.28 304.58,413.82 C324.63,407.36 342.66,396.76 360.81,386.37 C378.96,375.98 393.86,361.8 408.58,346.9 C418.51,336.85 425.66,324.11 432.5,311.9 C433.789192,309.737683 434.941456,307.496614 435.95,305.19 C440.543492,294.216918 443.995023,282.800059 446.25,271.12 C450.78,245.48 447.01,219.61 443.8,194.12 L436.9,139.35 C433.6,113.17 419.84,84 398.1,67.88 L374.94,53.65 C362.392536,47.283884 348.373786,44.3807151 334.33,45.24 C324.871461,43.6893447 315.170031,44.7081849 306.24,48.19 C292.315288,50.2650655 279.196981,56.0198597 268.24,64.86 Z" id="Shape" fill="url(#linearGradient-4)"></path>
                    <path d="M167.51,68.51 C163.450765,79.9593415 161.131637,91.9527363 160.63,104.09 C152.56,121.87 148.11,141.93 152.56,160.44 C153.621073,164.834398 154.435677,169.284674 155,173.77 C154.83,175.39 154.61,177 154.38,178.61 C153.546667,180.85 152.663333,183.066667 151.73,185.26 C150.32,187.26 148.85,189.26 147.33,191.17 C146.256667,192.043333 145.17,192.9 144.07,193.74 C141.76,194.74 139.42,195.74 137.07,196.55 C123.562075,201.510471 111.631198,210.00194 102.52,221.14 C92.4480167,229.732655 84.7030271,240.724213 80,253.1 C73.0632337,258.475089 66.9925559,264.883027 62,272.1 C46.86,294.48 37.13,322.31 42,349.67 C47.13,378.34 60.86,402.45 84,420.78 C92.58,427.59 103.46,432.9 113.22,437.72 C115.83421,438.986421 118.546343,440.039839 121.33,440.87 C141.67,447.16 156.09,449.14 176.53,449.03 C202.93,448.89 224.35,443.82 250.03,436.66 C261.760267,433.451792 273.135085,429.062687 283.98,423.56 C302.67,413.97 321.58,403.23 338.11,390.09 C354.64,376.95 369.67,361.32 383.25,345.22 C396.83,329.12 406.5,310.58 416.39,292.14 C426.28,273.7 431.39,253.79 435.99,233.35 C439.08,219.56 438.4,204.97 437.76,191.03 C437.707499,188.512623 437.497085,186.001022 437.13,183.51 C435.2104,171.770495 432.087268,160.259812 427.81,149.16 C418.06,125.01 401.16,105.07 384.94,85.16 L350,42.38 C333.33,21.92 306.2,4.48 279.22,2.38 L252,2.48 C237.98745,3.73199979 224.562562,8.69945013 213.11,16.87 C204.278192,20.5695929 196.601153,26.5717044 190.88,34.25 C180.180911,43.3876304 172.113483,55.2143337 167.51,68.51 Z" id="Shape" fill="url(#linearGradient-5)"></path>
                    <path d="M85.67,83.56 C81.4365284,96.9787692 80.8600351,111.284087 84,125 C86.6184756,136.859765 91.0005299,148.259848 97,158.82 C99.58,178.18 106.44,197.55 120,210.89 C123.2203,214.051295 126.261694,217.389818 129.11,220.89 C129.82,222.35 130.49,223.84 131.11,225.32 C131.59,227.66 132.013333,229.993333 132.38,232.32 C132.25,234.77 132.04,237.22 131.78,239.66 C131.333333,240.993333 130.866667,242.293333 130.38,243.56 C128.95,245.63 127.47,247.68 125.91,249.67 C117.083408,261.034129 111.465035,274.5569 109.64,288.83 C105.672153,301.446186 104.943098,314.858049 107.52,327.83 C104.475331,336.058808 102.711469,344.706116 102.29,353.47 C101.29,380.47 107.8,409.23 126.46,429.84 C146.01,451.43 170.46,464.61 199.73,467.91 C210.61,469.13 222.66,467.91 233.48,466.79 C236.369217,466.477615 239.228503,465.932511 242.03,465.16 C262.61,459.72 275.89,453.76 293.17,442.83 C315.54,428.82 331,413.17 349,393.49 C357.247976,384.553284 364.568735,374.803439 370.85,364.39 C381.62,346.39 391.96,327.23 399.01,307.32 C406.06,287.41 410.53,266.2 413.51,245.32 C416.49,224.44 414.87,203.62 413.51,182.75 C412.15,161.88 405.9,142.3 399,122.54 C394.28,109.21 386,97.2 378,85.72 C376.61973,83.6278393 375.110124,81.6239376 373.48,79.72 C365.629926,70.7819479 356.880462,62.6758765 347.37,55.53 C326.31,40.21 301.37,32.26 277.11,23.98 L224.9,6.14 C199.9,-2.37 167.67,-2.79 143.66,9.69 L120.66,24.21 C109.452437,32.6944701 100.708973,44.0129932 95.33,57 C89.7874855,64.8274037 86.4510647,74.0008341 85.67,83.56 L85.67,83.56 Z" id="Shape" fill="url(#linearGradient-6)"></path>
                    <path d="M53.2713167,92.0080608 C80.7322886,61.026763 92.767515,60.3902143 91.8934562,62.3133294 C90.8640009,64.5783496 88.2232326,79.0529926 85.9052446,90.0366483 C83.3687113,102.055869 84.2457483,111.054879 84.2457483,111.054879 C84.2457483,111.054879 61.6686935,116.647278 51.5401344,124.193558 C41.4115753,131.739838 29.7646082,142.165059 29.7646082,142.165059 C29.7646082,142.165059 25.8103448,122.989359 53.2713167,92.0080608 Z" id="Path-2" fill="#D6C8B8"></path>
                </g>
            </g>
        </g>
    </g>
</svg>
